<?xml version="1.0" encoding="UTF-8"?><svg xmlns="http://www.w3.org/2000/svg" xmlns:xlink="http://www.w3.org/1999/xlink" width="89.25pt" zoomAndPan="magnify" viewBox="0 0 89.25 30.000001" height="30.000001pt" preserveAspectRatio="xMidYMid meet" version="1.2"><defs><g/></defs><g xml:id="surface1" id="surface1"><g style="fill:rgb(100%,100%,100%);fill-opacity:1;"><g transform="translate(1.452094, 20.645162)"><path style="stroke:none;" d="M 0.804688 0 L 4.605469 0 L 4.605469 -3.894531 L 9.839844 -3.894531 L 9.839844 -6.355469 L 4.605469 -6.355469 L 4.605469 -8.375 L 10.789062 -8.375 L 10.789062 -11.292969 L 0.804688 -11.292969 Z M 0.804688 0 "/></g></g><g style="fill:rgb(100%,100%,100%);fill-opacity:1;"><g transform="translate(13.322655, 20.645162)"><path style="stroke:none;" d="M 2.335938 -8.988281 C 3.453125 -8.988281 4.226562 -9.699219 4.226562 -10.742188 C 4.226562 -11.765625 3.453125 -12.476562 2.335938 -12.476562 C 1.214844 -12.476562 0.441406 -11.765625 0.441406 -10.742188 C 0.441406 -9.699219 1.214844 -8.988281 2.335938 -8.988281 Z M 0.632812 0 L 4.039062 0 L 4.039062 -8.136719 L 0.632812 -8.136719 Z M 0.632812 0 "/></g></g><g style="fill:rgb(100%,100%,100%);fill-opacity:1;"><g transform="translate(18.793193, 20.645162)"><path style="stroke:none;" d="M 3.722656 0 L 7.996094 0 L 11.765625 -8.136719 L 8.203125 -8.136719 L 5.914062 -2.382812 L 5.882812 -2.382812 L 3.597656 -8.136719 L 0.015625 -8.136719 Z M 3.722656 0 "/></g></g><g style="fill:rgb(100%,100%,100%);fill-opacity:1;"><g transform="translate(31.373115, 20.645162)"><path style="stroke:none;" d="M 6.402344 0.285156 C 8.34375 0.285156 10.15625 -0.285156 11.054688 -1.105469 L 9.777344 -2.695312 C 9.117188 -2.191406 7.855469 -1.84375 6.609375 -1.84375 C 5.269531 -1.84375 4.148438 -2.300781 3.878906 -3.25 L 10.929688 -3.25 C 11.023438 -3.53125 11.054688 -3.910156 11.054688 -4.226562 C 11.054688 -6.765625 8.972656 -8.4375 5.804688 -8.4375 C 2.539062 -8.4375 0.316406 -6.671875 0.316406 -4.085938 C 0.316406 -1.449219 2.792969 0.285156 6.402344 0.285156 Z M 3.832031 -4.824219 C 3.941406 -5.757812 4.746094 -6.386719 5.789062 -6.386719 C 6.8125 -6.386719 7.585938 -5.757812 7.617188 -4.824219 Z M 3.832031 -4.824219 "/></g></g><g style="fill:rgb(100%,100%,100%);fill-opacity:1;"><g transform="translate(43.547003, 20.645162)"><path style="stroke:none;" d="M 5.265625 0.304688 C 7.753906 0.304688 9.585938 -0.738281 9.585938 -2.425781 C 9.585938 -3.886719 8.378906 -4.496094 6.230469 -4.816406 L 4.445312 -5.042969 C 3.226562 -5.21875 2.648438 -5.476562 2.648438 -6.035156 C 2.648438 -6.679688 3.582031 -7.144531 4.816406 -7.144531 C 6.117188 -7.144531 7.257812 -6.582031 7.65625 -5.78125 L 8.910156 -6.4375 C 8.332031 -7.640625 6.726562 -8.460938 4.847656 -8.460938 C 2.570312 -8.460938 0.914062 -7.480469 0.914062 -5.84375 C 0.914062 -4.480469 2.023438 -3.851562 4.015625 -3.597656 L 5.746094 -3.371094 C 7.113281 -3.179688 7.820312 -2.875 7.820312 -2.28125 C 7.820312 -1.558594 6.742188 -1.074219 5.25 -1.074219 C 3.5 -1.074219 2.023438 -1.832031 1.652344 -2.90625 L 0.320312 -2.296875 C 0.785156 -0.707031 2.859375 0.304688 5.265625 0.304688 Z M 5.265625 0.304688 "/></g></g><g style="fill:rgb(100%,100%,100%);fill-opacity:1;"><g transform="translate(53.448032, 20.645162)"><path style="stroke:none;" d="M 5.492188 0.304688 C 7.03125 0.304688 8.347656 -0.449219 8.925781 -1.703125 L 8.011719 -2.679688 C 7.609375 -1.75 6.808594 -1.203125 5.84375 -1.203125 C 4.785156 -1.203125 4.160156 -1.847656 4.160156 -2.9375 L 4.160156 -6.742188 L 8.507812 -6.742188 L 8.507812 -8.171875 L 4.160156 -8.171875 L 4.160156 -10.964844 L 2.230469 -10.5625 L 2.230469 -8.171875 L 0.03125 -8.171875 L 0.03125 -6.742188 L 2.246094 -6.742188 L 2.246094 -2.648438 C 2.246094 -0.820312 3.46875 0.304688 5.492188 0.304688 Z M 5.492188 0.304688 "/></g></g><g style="fill:rgb(100%,100%,100%);fill-opacity:1;"><g transform="translate(62.546705, 20.645162)"><path style="stroke:none;" d="M 3.933594 0.289062 C 5.84375 0.289062 7.402344 -0.464844 8.089844 -1.589844 L 8.109375 -1.589844 L 8.125 -1.300781 C 8.203125 -0.371094 8.957031 0.289062 10.066406 0.289062 C 10.902344 0.289062 11.71875 -0.03125 12.152344 -0.5625 L 11.496094 -1.605469 C 11.300781 -1.316406 10.964844 -1.125 10.644531 -1.125 C 10.242188 -1.125 10.003906 -1.398438 10.003906 -1.832031 L 10.003906 -5.378906 C 10.003906 -7.335938 8.089844 -8.476562 5.507812 -8.476562 C 3.164062 -8.476562 1.125 -7.433594 0.480469 -6.085938 L 1.734375 -5.28125 C 2.296875 -6.261719 3.835938 -7.046875 5.523438 -7.046875 C 7.046875 -7.046875 8.125 -6.453125 8.125 -5.636719 C 8.125 -5.3125 7.882812 -5.121094 7.480469 -5.089844 L 4.671875 -4.832031 C 1.71875 -4.542969 0.304688 -3.515625 0.304688 -2.070312 C 0.304688 -0.59375 1.703125 0.289062 3.933594 0.289062 Z M 4.464844 -1.109375 C 3.050781 -1.109375 2.214844 -1.542969 2.214844 -2.28125 C 2.214844 -2.96875 3.019531 -3.453125 4.929688 -3.644531 L 8.074219 -3.933594 L 8.074219 -3.546875 C 8.074219 -2.152344 6.550781 -1.109375 4.464844 -1.109375 Z M 4.464844 -1.109375 "/></g></g><g style="fill:rgb(100%,100%,100%);fill-opacity:1;"><g transform="translate(74.694328, 20.645162)"><path style="stroke:none;" d="M 5.394531 -8.476562 C 4.125 -8.476562 3.082031 -7.769531 2.550781 -6.628906 L 2.535156 -6.628906 L 2.296875 -8.171875 L 0.691406 -8.171875 L 0.691406 0 L 2.601562 0 L 2.601562 -3.980469 C 2.601562 -5.84375 3.453125 -6.984375 4.863281 -6.984375 C 5.8125 -6.984375 6.46875 -6.308594 6.582031 -5.121094 L 8.269531 -5.570312 C 8.089844 -7.402344 6.984375 -8.476562 5.394531 -8.476562 Z M 5.394531 -8.476562 "/></g></g><g style="fill:rgb(100%,100%,100%);fill-opacity:1;"><g transform="translate(83.231358, 20.645162)"><path style="stroke:none;" d="M 1.734375 0.191406 C 2.441406 0.191406 2.96875 -0.289062 2.96875 -0.980469 C 2.96875 -1.636719 2.441406 -2.121094 1.734375 -2.121094 C 1.027344 -2.121094 0.515625 -1.636719 0.515625 -0.980469 C 0.515625 -0.289062 1.027344 0.191406 1.734375 0.191406 Z M 1.734375 0.191406 "/></g></g></g></svg>